# xmcd
#
# Track frame offsets: 
#        150
#        15432
#        32007
#        45257
#        64347
#        75080
#        89812
#        102250
#        121040
#        146125
#        166105
#
# Disc length: 2512 seconds
#
# Revision: 3
# Processed by: cddbd v1.5.2PL0 Copyright (c) Steve Scherf et al.
# Submitted via: ExactAudioCopy v0.95b4
#
DISCID=7d09ce0b
DTITLE=T-Model Ford - Pee-Wee Get My Gun
DYEAR=1900
DGENRE=Blues
TTITLE0=Cut You Loose
TTITLE1=T-Model Theme Song
TTITLE2=Been a Long Time
TTITLE3=Turkey and the Rabbit
TTITLE4=Can't Be Touched
TTITLE5=Nobody Gets Me Down
TTITLE6=I'm Insane
TTITLE7=Where You Been
TTITLE8=Feels So Bad
TTITLE9=Sugar Farm
TTITLE10=Let Me In
EXTD=
EXTT0=
EXTT1=
EXTT2=
EXTT3=
EXTT4=
EXTT5=
EXTT6=
EXTT7=
EXTT8=
EXTT9=
EXTT10=
PLAYORDER=
